<svg width="108" height="30" viewBox="0 0 108 30" fill="none" xmlns="http://www.w3.org/2000/svg">
<path fill-rule="evenodd" clip-rule="evenodd" d="M29.2079 15.396C29.2079 23.4615 22.6694 30 14.6039 30C6.53844 30 0 23.4615 0 15.396C0 7.33056 6.53844 0.792114 14.6039 0.792114C22.6694 0.792114 29.2079 7.33056 29.2079 15.396Z" fill="#757557"/>
<path fill-rule="evenodd" clip-rule="evenodd" d="M10.9591 10.5242H8.5267L3.65234 20.2633H6.08474L9.7429 12.9661L13.3915 20.2633H15.8239L10.9591 10.5242Z" fill="white"/>
<path fill-rule="evenodd" clip-rule="evenodd" d="M18.2515 20.2633H20.6839L25.5583 10.5242H23.1259L19.4677 17.8309L15.8191 10.5242H13.3867L18.2515 20.2633Z" fill="white"/>
<path fill-rule="evenodd" clip-rule="evenodd" d="M100.789 28.9378V26.4965H101.404C101.802 28.0698 102.724 29.2453 104.117 29.2453C105.075 29.2453 105.816 28.757 105.816 27.7624C105.816 26.7859 105.147 26.4061 103.719 25.9359C101.802 25.2849 100.807 24.5614 100.807 22.8797C100.807 21.0713 102.182 19.9501 104.243 19.9501C105.382 19.9501 106.359 20.2394 107.1 20.6915V22.8978H106.486C106.196 21.6137 105.455 20.583 104.207 20.583C103.249 20.583 102.706 21.1617 102.706 21.9393C102.706 22.7711 103.267 23.1509 104.641 23.6391C106.612 24.2903 107.752 24.9956 107.752 26.7677C107.752 28.7027 106.305 29.8782 104.08 29.8782C102.688 29.8782 101.549 29.4803 100.789 28.9378ZM93.7736 23.4584H97.3181C97.3181 21.7584 96.8659 20.6192 95.6905 20.6192C94.5331 20.6192 93.9183 21.8128 93.7736 23.4584ZM95.781 29.8782C93.1587 29.8782 91.4046 27.9433 91.4046 25.1583C91.4046 22.084 93.3938 19.9501 95.8714 19.9501C98.2764 19.9501 99.5424 21.5595 99.5424 23.7296V24.2179H93.7374C93.6831 26.6773 94.9491 28.1602 96.667 28.1602C97.8606 28.1602 98.6382 27.6357 99.2711 26.6954L99.6328 26.8582C99.1626 28.6484 97.8425 29.8782 95.781 29.8782ZM89.2714 29.6974H84.0994V29.1006C84.9494 29.0464 85.2388 28.9378 85.2388 28.3049V21.9031L84.1537 21.2702V20.9448L87.3546 19.9501H87.7704L87.6801 22.2829C88.4034 20.6372 88.946 19.9501 89.8683 19.9501C90.2118 19.9501 90.5012 20.0405 90.6096 20.131V22.3191H89.9225C88.8375 22.3191 88.2045 22.536 87.7344 22.952V28.1602C87.7344 28.9016 88.1502 29.0102 89.2714 29.1006V29.6974ZM79.652 27.5815V22.1564C79.652 21.5595 79.5255 21.2884 78.8201 21.1437L78.5488 21.0893V20.5468L81.8402 19.9501H82.238L82.1658 22.0659V27.7804C82.1658 28.3953 82.2018 28.5942 82.889 28.6484L83.3412 28.6847V29.2271L80.0499 29.8782H79.5978L79.652 28.2506C78.8925 29.0644 77.8798 29.8782 76.3789 29.8782C74.6971 29.8782 73.829 28.9197 73.829 26.9848V22.1564C73.829 21.5595 73.7024 21.2702 72.9971 21.1437L72.7077 21.0893V20.5468L76.0352 19.9501H76.4331L76.3427 22.1021V26.8401C76.3427 27.8709 76.7405 28.3773 77.699 28.3773C78.4223 28.3773 79.0553 28.0698 79.652 27.5815ZM70.9905 28.5038C71.4787 28.5038 71.8765 28.4133 72.3106 28.124L72.5457 28.4315C71.967 29.2995 71.0809 29.8782 69.7789 29.8782C68.296 29.8782 67.211 29.1006 67.211 27.0752V21.0893H66.0897V20.6735C67.3375 20.0948 68.4044 19.0278 69.1822 17.798H69.7246V20.2575H72.0574V21.0893H69.7246V26.9305C69.7246 28.0336 70.1405 28.5038 70.9905 28.5038ZM61.8412 23.0244C61.8412 21.9755 61.4434 21.451 60.4487 21.451C59.7073 21.451 59.0562 21.7766 58.4414 22.2648V28.3049C58.4414 28.9378 58.7126 29.0464 59.5445 29.1006V29.6974H54.8065V29.1006C55.6565 29.0464 55.9458 28.9378 55.9458 28.3049V21.9031L54.8607 21.2702V20.9448L58.0977 19.9501H58.5137L58.4414 21.5957C59.219 20.7819 60.2318 19.9501 61.7689 19.9501C63.4688 19.9501 64.3548 20.9266 64.3548 22.8797V28.3049C64.3548 28.9378 64.6442 29.0464 65.4761 29.1006V29.6974H60.738V29.1006C61.5699 29.0464 61.8412 28.9378 61.8412 28.3049V23.0244ZM47.9719 23.4584H51.5164C51.5164 21.7584 51.0642 20.6192 49.8888 20.6192C48.7314 20.6192 48.1166 21.8128 47.9719 23.4584ZM49.9792 29.8782C47.357 29.8782 45.6029 27.9433 45.6029 25.1583C45.6029 22.084 47.5921 19.9501 50.0697 19.9501C52.4749 19.9501 53.7407 21.5595 53.7407 23.7296V24.2179H47.9357C47.8814 26.6773 49.1473 28.1602 50.8653 28.1602C52.0589 28.1602 52.8365 27.6357 53.4694 26.6954L53.8312 26.8582C53.3609 28.6484 52.0407 29.8782 49.9792 29.8782ZM40.8119 29.8058H39.7268L35.0612 18.6842C34.7537 17.9247 34.5368 17.7438 33.9219 17.6715V17.0385H39.2747V17.6715C37.9184 17.7076 37.5929 18.1236 38.0269 19.1543L41.1735 26.7497L44.1393 19.3172C44.5733 18.2321 44.3382 17.7258 42.8191 17.6715V17.0385H46.7072V17.6715C45.9477 17.7438 45.568 18.0693 44.9893 19.4799L40.8119 29.8058ZM87.0833 12.3514C87.6438 12.3514 88.2225 12.0801 88.6205 11.6099V7.03469C88.6205 5.62409 88.0236 4.81039 86.9386 4.81039C85.4377 4.81039 84.5515 6.25709 84.5515 8.51749C84.5515 10.7238 85.4557 12.3514 87.0833 12.3514ZM89.0183 13.8886H88.5481L88.6205 12.3152C87.9151 13.2556 86.9205 13.8886 85.727 13.8886C83.5207 13.8886 82.074 12.1163 82.074 9.38549C82.074 5.96779 84.0994 4.0327 86.6673 4.0327C87.4991 4.0327 88.1864 4.2678 88.6205 4.6656V1.8084L87.5354 1.2478V0.868096L90.7363 0H91.1341V11.7907C91.1341 12.4056 91.1702 12.6045 91.8575 12.6588L92.2915 12.695V13.2375L89.0183 13.8886ZM79.9409 12.3152C79.9409 12.9481 80.2303 13.0566 81.0621 13.1109V13.7077H76.3241V13.1109C77.156 13.0566 77.4453 12.9481 77.4453 12.3152V1.8084L76.3603 1.2478V0.868096L79.5431 0H79.9409V12.3152ZM68.7481 8.51749C68.7481 11.176 69.3811 13.2194 70.8098 13.2194C72.1298 13.2194 72.7447 11.7185 72.7447 9.33129C72.7447 6.67299 72.1118 4.62949 70.6831 4.62949C69.363 4.62949 68.7481 6.13049 68.7481 8.51749ZM75.403 8.69839C75.403 11.7907 73.4138 13.8886 70.7193 13.8886C67.9525 13.8886 66.0898 12.0078 66.0898 9.15058C66.0898 6.05809 68.079 3.96039 70.7735 3.96039C73.5405 3.96039 75.403 5.84119 75.403 8.69839ZM61.57 7.03469C61.57 5.98579 61.1722 5.46139 60.1775 5.46139C59.4361 5.46139 58.785 5.78689 58.1703 6.27519V12.3152C58.1703 12.9481 58.4414 13.0566 59.2733 13.1109V13.7077H54.5353V13.1109C55.3853 13.0566 55.6746 12.9481 55.6746 12.3152V5.91339L54.5895 5.28049V4.95499L57.8265 3.96039H58.2425L58.1703 5.60599C58.9479 4.7922 59.9605 3.96039 61.4977 3.96039C63.1976 3.96039 64.0837 4.9369 64.0837 6.89009V12.3152C64.0837 12.9481 64.373 13.0566 65.205 13.1109V13.7077H60.4668V13.1109C61.2987 13.0566 61.57 12.9481 61.57 12.3152V7.03469ZM52.5831 13.7077H47.411V13.1109C48.261 13.0566 48.5503 12.9481 48.5503 12.3152V5.91339L47.4652 5.28049V4.95499L50.6662 3.96039H51.082L50.9916 6.29319C51.715 4.64759 52.2575 3.96039 53.1798 3.96039C53.5234 3.96039 53.8127 4.05089 53.9212 4.14129V6.32939H53.234C52.1489 6.32939 51.516 6.54649 51.0459 6.96229V12.1705C51.0459 12.912 51.4618 13.0205 52.5831 13.1109V13.7077ZM41.499 8.58989L39.4736 3.3998L37.5206 8.58989H41.499ZM37.81 13.7077H33.9219V13.0748C34.6814 13.0023 35.0612 12.695 35.6037 11.2663L38.9854 2.4052L38.4429 1.0489H41.2639L45.5861 12.0621C45.8754 12.8034 46.0923 13.0023 46.7072 13.0748V13.7077H41.3724V13.0748C42.7288 13.0385 43.0542 12.6227 42.6564 11.5918L41.8065 9.38549H37.2313L36.4536 11.4291C36.0377 12.5141 36.2908 13.0205 37.81 13.0748V13.7077Z" fill="#757557"/>
</svg>
