<svg width="74" height="38" viewBox="0 0 74 38" fill="none" xmlns="http://www.w3.org/2000/svg">
<path d="M2.87712 30.7578C2.85446 30.3159 2.4944 29.7066 1.58293 29.7066C0.820007 29.7066 0.203125 30.253 0.203125 31.2828C0.203125 32.3139 0.775944 32.8388 1.58293 32.8388C2.3257 32.8388 2.74996 32.397 2.87712 31.7448H2.2615C2.17589 32.1024 1.94298 32.3139 1.58293 32.3139C1.05291 32.3139 0.84015 31.8304 0.84015 31.2828C0.84015 30.4418 1.28582 30.253 1.58293 30.253C2.11294 30.253 2.19729 30.5904 2.2615 30.7578H2.87712ZM5.6128 29.791H3.40713V32.7558H5.69715V32.2295H4.0215V31.4729H5.48565V30.9467H4.0215V30.3159H5.6128V29.791ZM8.09669 31.872H8.07403L6.88685 29.791H6.22842V32.7558H6.82264V30.6521L8.05263 32.7558H8.66825V29.791H8.09669V31.872ZM10.6209 30.3159H11.5122V29.791H9.07111V30.3159H9.98385V32.7558H10.6209V30.3159ZM14.1623 29.791H11.9566V32.7558H14.2479V32.2295H12.5722V31.4729H14.0351V30.9467H12.5722V30.3159H14.1623V29.791ZM14.7993 32.7558H15.4149V31.5988H16.0733C16.5392 31.5988 16.5606 31.7675 16.5606 32.1666C16.5606 32.4813 16.582 32.6299 16.6248 32.7558H17.326V32.6928C17.1976 32.6299 17.1976 32.5254 17.1976 32.1036C17.1976 31.5358 17.049 31.4515 16.8149 31.347C17.112 31.2425 17.2819 30.9681 17.2819 30.6319C17.2819 30.3801 17.1334 29.791 16.3277 29.791H14.8006V32.7558H14.7993ZM15.4149 31.094V30.2958H16.2005C16.582 30.2958 16.6462 30.5476 16.6462 30.6949C16.6462 30.9895 16.4762 31.094 16.159 31.094H15.4149ZM17.7263 31.8506C17.7263 32.2081 17.9177 32.8388 19.0205 32.8388C19.2748 32.8388 20.1876 32.7545 20.1876 31.8707C20.1876 31.3457 19.8275 31.177 19.4032 31.0713L18.6819 30.8825C18.5535 30.8623 18.3634 30.8195 18.3634 30.5891C18.3634 30.3159 18.6391 30.2316 18.8934 30.2316C19.4247 30.2316 19.4889 30.5463 19.509 30.6735H20.1032C20.1032 30.3159 19.8489 29.7066 18.9362 29.7066C17.9605 29.7066 17.7691 30.2958 17.7691 30.6319C17.7691 31.2841 18.2362 31.3898 18.7234 31.4943L19.0419 31.5786C19.3604 31.663 19.5934 31.7058 19.5934 31.9362C19.5934 32.2509 19.2534 32.3353 18.9563 32.3353C18.4263 32.3353 18.342 32.0193 18.342 31.8518H17.7263V31.8506ZM22.9031 31.5144H24.2187V30.9895H22.9031V30.3159H24.4101V29.791H22.2661V32.7558H22.9031V31.5144ZM24.7701 31.2828C24.7701 32.6714 25.81 32.8388 26.2129 32.8388C26.6145 32.8388 27.6556 32.6702 27.6556 31.2828C27.6556 29.874 26.6157 29.7066 26.2129 29.7066C25.81 29.7066 24.7701 29.874 24.7701 31.2828ZM25.4071 31.2828C25.4071 30.4418 25.8742 30.2316 26.2141 30.2316C26.554 30.2316 27.0413 30.4418 27.0413 31.2828C27.0413 32.1024 26.5528 32.3139 26.2141 32.3139C25.8755 32.3139 25.4071 32.1024 25.4071 31.2828ZM28.1856 32.7558H28.8013V31.5988H29.4584C29.9242 31.5988 29.9456 31.7675 29.9456 32.1666C29.9456 32.4813 29.967 32.6299 30.0086 32.7558H30.7098V32.6928C30.5814 32.6299 30.5814 32.5254 30.5814 32.1036C30.5814 31.5358 30.4341 31.4515 30.1999 31.347C30.497 31.2425 30.667 30.9681 30.667 30.6319C30.667 30.3801 30.5197 29.791 29.7127 29.791H28.1856V32.7558ZM28.8013 31.094V30.2958H29.5856C29.9683 30.2958 30.0312 30.5476 30.0312 30.6949C30.0312 30.9895 29.8613 31.094 29.544 31.094H28.8013ZM32.8097 32.7558H34.1253C35.101 32.7558 35.3566 31.8518 35.3566 31.1997C35.3566 30.6533 35.1652 29.791 34.1467 29.791H32.8097V32.7558ZM33.4254 30.2945H34.041C34.2953 30.2945 34.7195 30.3789 34.7195 31.2627C34.7195 31.7461 34.5496 32.2509 34.041 32.2509H33.4254V30.2945ZM35.845 29.791H36.4808V32.7558H35.845V29.791ZM37.0108 31.8506C37.0108 32.2081 37.2009 32.8388 38.3037 32.8388C38.5581 32.8388 39.4708 32.7545 39.4708 31.8707C39.4708 31.3457 39.1107 31.177 38.6865 31.0713L37.9651 30.8825C37.8379 30.8623 37.6466 30.8195 37.6466 30.5891C37.6466 30.3159 37.9235 30.2316 38.1779 30.2316C38.7079 30.2316 38.7721 30.5463 38.7922 30.6735H39.3864C39.3864 30.3159 39.1321 29.7066 38.2194 29.7066C37.245 29.7066 37.0524 30.2958 37.0524 30.6319C37.0524 31.2841 37.5194 31.3898 38.0066 31.4943L38.3252 31.5786C38.6424 31.663 38.8766 31.7058 38.8766 31.9362C38.8766 32.2509 38.5367 32.3353 38.2408 32.3353C37.7095 32.3353 37.6252 32.0193 37.6252 31.8518H37.0108V31.8506ZM42.2077 29.791H40.0021V32.7558H42.2933V32.2295H40.6177V31.4729H42.0818V30.9467H40.6177V30.3159H42.2077V29.791ZM43.4818 32.1452H44.606L44.7974 32.7545H45.4759L44.4147 29.7897H43.6933L42.6119 32.7545H43.2904L43.4818 32.1452ZM44.0332 30.4632H44.0559L44.4159 31.6403H43.653L44.0332 30.4632ZM45.7718 31.8506C45.7718 32.2081 45.9632 32.8388 47.066 32.8388C47.3203 32.8388 48.233 32.7545 48.233 31.8707C48.233 31.3457 47.8717 31.177 47.4474 31.0713L46.7273 30.8825C46.5989 30.8623 46.4088 30.8195 46.4088 30.5891C46.4088 30.3159 46.6845 30.2316 46.9388 30.2316C47.4701 30.2316 47.5331 30.5463 47.5545 30.6735H48.1487C48.1487 30.3159 47.8944 29.7066 46.9816 29.7066C46.006 29.7066 45.8146 30.2958 45.8146 30.6319C45.8146 31.2841 46.2804 31.3898 46.7689 31.4943L47.0874 31.5786C47.4059 31.663 47.6388 31.7058 47.6388 31.9362C47.6388 32.2509 47.2989 32.3353 47.0018 32.3353C46.4718 32.3353 46.3874 32.0193 46.3874 31.8518H45.7718V31.8506ZM50.97 29.791H48.763V32.7558H51.0556V32.2295H49.3799V31.4729H50.8428V30.9467H49.3799V30.3159H50.97V29.791ZM55.7011 30.7578C55.6797 30.3159 55.3184 29.7066 54.4081 29.7066C53.644 29.7066 53.0283 30.253 53.0283 31.2828C53.0283 32.3139 53.6012 32.8388 54.4081 32.8388C55.1497 32.8388 55.5739 32.397 55.7011 31.7448H55.0854C55.0011 32.1024 54.7682 32.3126 54.4081 32.3126C53.8769 32.3126 53.6641 31.8292 53.6641 31.2815C53.6641 30.4406 54.1098 30.2517 54.4081 30.2517C54.9382 30.2517 55.0225 30.5891 55.0854 30.7566H55.7011V30.7578ZM56.1039 31.2828C56.1039 32.6714 57.1426 32.8388 57.5467 32.8388C57.9508 32.8388 58.9894 32.6702 58.9894 31.2828C58.9894 29.874 57.9495 29.7066 57.5467 29.7066C57.1438 29.7066 56.1039 29.874 56.1039 31.2828ZM56.741 31.2828C56.741 30.4418 57.2068 30.2316 57.5467 30.2316C57.8866 30.2316 58.3738 30.4418 58.3738 31.2828C58.3738 32.1024 57.8853 32.3139 57.5467 32.3139C57.208 32.3139 56.741 32.1024 56.741 31.2828ZM61.3651 31.872H61.3449L60.1565 29.791H59.4993V32.7558H60.0923V30.6521L61.3235 32.7558H61.9379V29.791H61.3651V31.872ZM63.8905 30.3159H64.7806V29.791H62.342V30.3159H63.2535V32.7558H63.8905V30.3159ZM65.2262 32.7558H65.8406V31.5988H66.4978C66.9648 31.5988 66.9862 31.7675 66.9862 32.1666C66.9862 32.4813 67.0076 32.6299 67.0504 32.7558H67.7504V32.6928C67.622 32.6299 67.622 32.5254 67.622 32.1036C67.622 31.5358 67.4747 31.4515 67.2405 31.347C67.5364 31.2425 67.7063 30.9681 67.7063 30.6319C67.7063 30.3801 67.559 29.791 66.7521 29.791H65.225V32.7558H65.2262ZM65.8419 31.094V30.2958H66.6274C67.0089 30.2958 67.0731 30.5476 67.0731 30.6949C67.0731 30.9895 66.9031 31.094 66.5846 31.094H65.8419ZM68.0903 31.2828C68.0903 32.6714 69.1302 32.8388 69.5331 32.8388C69.9359 32.8388 70.9758 32.6702 70.9758 31.2828C70.9758 29.874 69.9359 29.7066 69.5331 29.7066C69.1302 29.7066 68.0903 29.874 68.0903 31.2828ZM68.7273 31.2828C68.7273 30.4418 69.1944 30.2316 69.5331 30.2316C69.8742 30.2316 70.3615 30.4418 70.3615 31.2828C70.3615 32.1024 69.873 32.3139 69.5331 32.3139C69.1944 32.3139 68.7273 32.1024 68.7273 31.2828ZM72.1429 29.791H71.5058V32.7558H73.6272V32.2295H72.1429V29.791ZM18.5963 36.6874H19.7205L19.9119 37.298H20.5904L19.5291 34.3332H18.8078L17.7263 37.298H18.4062L18.5963 36.6874ZM19.1489 35.0055H19.1691L19.5304 36.1839H18.7675L19.1489 35.0055ZM22.8817 36.4142H22.8603L21.6731 34.332H21.0147V37.2968H21.6089V35.1943L22.8402 37.2968H23.4545V34.332H22.8817V36.4142ZM24.1117 37.2968H25.4273C26.403 37.2968 26.6585 36.3916 26.6585 35.7407C26.6585 35.1931 26.4684 34.332 25.4487 34.332H24.1117V37.2968ZM24.7273 34.8368H25.3429C25.5972 34.8368 26.0228 34.9211 26.0228 35.8049C26.0228 36.2884 25.8528 36.7932 25.3429 36.7932H24.7273V34.8368ZM29.3741 36.2241H30.0942C30.9012 36.2241 31.0497 35.5506 31.0497 35.2774C31.0497 34.7096 30.6897 34.332 30.1156 34.332H28.737V37.2968H29.3741V36.2241ZM29.3741 35.7206V34.8368H29.8613C30.2641 34.8368 30.4127 34.9639 30.4127 35.2573C30.4127 35.3832 30.4127 35.7193 29.9456 35.7193H29.3741V35.7206ZM31.5797 37.2968H32.1954V36.1398H32.8525C33.3183 36.1398 33.3397 36.3085 33.3397 36.7076C33.3397 37.0223 33.3624 37.1696 33.4039 37.2968H34.1052V37.2338C33.9768 37.1709 33.9768 37.0651 33.9768 36.6446C33.9768 36.0769 33.8282 35.9925 33.5953 35.888C33.8912 35.7835 34.0611 35.5091 34.0611 35.1729C34.0611 34.9211 33.9126 34.332 33.1068 34.332H31.5785V37.2968H31.5797ZM32.1954 35.6362V34.8368H32.9797C33.3624 34.8368 33.4254 35.0898 33.4254 35.2359C33.4254 35.5305 33.2554 35.635 32.9381 35.635H32.1954V35.6362ZM36.8623 34.332H34.6566V37.2968H36.9479V36.7718H35.2722V36.0139H36.7351V35.4889H35.2722V34.8582H36.8623V34.332ZM38.6021 36.5829H38.5807L37.945 34.332H37.2664L38.2836 37.2968H38.8778L39.8951 34.332H39.2391L38.6021 36.5829ZM42.5489 34.332H40.342V37.2968H42.6333V36.7718H40.9563V36.0139H42.4205V35.4889H40.9563V34.8582H42.5489V34.332ZM45.0303 36.4142H45.0089L43.8217 34.332H43.1633V37.2968H43.7575V35.1943L44.9875 37.2968H45.6031V34.332H45.0303V36.4142ZM47.5545 34.8582H48.4445V34.332H46.006V34.8582H46.9187V37.2968H47.5545V34.8582ZM48.8487 34.332H49.4857V37.2968H48.8487V34.332ZM50.0358 35.8251C50.0358 37.2137 51.0757 37.3811 51.4786 37.3811C51.8814 37.3811 52.9213 37.2124 52.9213 35.8251C52.9213 34.4163 51.8827 34.2489 51.4786 34.2489C51.0745 34.2489 50.0358 34.4163 50.0358 35.8251ZM50.6729 35.8251C50.6729 34.9841 51.1399 34.7738 51.4798 34.7738C51.8198 34.7738 52.307 34.9841 52.307 35.8251C52.307 36.6446 51.8185 36.8561 51.4798 36.8561C51.1412 36.8561 50.6729 36.6446 50.6729 35.8251ZM55.2982 36.4142H55.2768L54.0884 34.332H53.4299V37.2968H54.0254V35.1943L55.2554 37.2968H55.871V34.332H55.2982V36.4142ZM54.5177 12.7134C54.5177 3.47906 64.7554 0.648957 71.7815 5.04644V0.806325C61.5413 -1.7871 51.6511 1.86132 50.2033 11.9568C49.0916 4.04055 41.65 0.851647 33.239 0.851647H23.4482C24.6467 1.36907 25.5393 3.21216 25.5393 4.14504L25.5003 24.166C25.5003 25.5534 24.5372 26.3616 23.1662 27.2227L33.0666 27.3486C41.3265 27.4418 48.8965 24.1861 50.163 16.4311C51.1852 22.8945 57.4711 27.404 64.2782 27.404C66.9019 27.404 69.635 27.1459 72.0862 26.3226C72.7975 24.7627 73.2457 23.32 73.9985 21.7602C64.6849 27.6306 54.5177 23.782 54.5177 12.7134ZM33.2063 24.5424C31.9612 24.5424 30.7564 24.346 29.7291 23.9935V4.14504C30.7564 3.78372 31.9612 3.58859 33.2063 3.58859C41.4373 3.58859 45.3475 7.14762 45.7693 14.0693C45.7693 21.7362 40.5925 24.5424 33.2063 24.5424Z" fill="#757557"/>
<path d="M21.7659 0.969995C10.6821 -1.83619 0 2.66327 0 14.7428C0 22.1832 6.82095 27.5689 14.2613 27.5689C16.8849 27.5689 19.4167 27.3738 21.8678 26.558C22.5804 24.9893 23.332 23.422 24.0836 21.8533C14.7712 27.7326 4.50324 23.9469 4.50324 12.8783C4.50324 3.64273 14.7397 0.813886 21.7646 5.21137V0.969995H21.7659Z" fill="#757557"/>
</svg>
