<svg width="208" height="30" viewBox="0 0 208 30" fill="none" xmlns="http://www.w3.org/2000/svg">
<path d="M103.944 8.70401H108.12C107.949 10.3253 107.309 11.6693 106.2 12.736C105.091 13.792 103.725 14.32 102.104 14.32C100.269 14.32 98.7066 13.664 97.416 12.352C96.1253 11.04 95.48 9.45601 95.48 7.60001C95.48 5.74401 96.1253 4.16001 97.416 2.84801C98.7066 1.53601 100.269 0.880005 102.104 0.880005C103.725 0.880005 105.091 1.41867 106.2 2.49601C107.309 3.56267 107.949 4.91201 108.12 6.54401H103.96C103.875 5.96801 103.672 5.53601 103.352 5.248C103.032 4.96001 102.68 4.81601 102.296 4.81601C101.827 4.81601 101.421 5.05067 101.08 5.52001C100.739 5.98934 100.568 6.68267 100.568 7.60001C100.568 8.52801 100.733 9.22667 101.064 9.696C101.405 10.1547 101.816 10.384 102.296 10.384C102.68 10.384 103.027 10.2453 103.336 9.96801C103.656 9.68001 103.859 9.25867 103.944 8.70401Z" fill="#283224"/>
<path d="M120.402 2.84801C121.703 4.16001 122.354 5.74401 122.354 7.60001C122.354 9.45601 121.703 11.04 120.402 12.352C119.111 13.664 117.548 14.32 115.714 14.32C113.879 14.32 112.311 13.664 111.01 12.352C109.719 11.04 109.074 9.45601 109.074 7.60001C109.074 5.74401 109.719 4.16001 111.01 2.84801C112.311 1.53601 113.879 0.880005 115.714 0.880005C117.548 0.880005 119.111 1.53601 120.402 2.84801ZM117.25 7.60001C117.25 5.62667 116.738 4.64001 115.714 4.64001C114.69 4.64001 114.178 5.62667 114.178 7.60001C114.178 9.58401 114.69 10.576 115.714 10.576C116.738 10.576 117.25 9.58401 117.25 7.60001Z" fill="#283224"/>
<path d="M135.538 1.20001L130.786 14H126.738L121.922 1.20001H127.17L129.298 7.87201L131.33 1.20001H135.538Z" fill="#283224"/>
<path d="M141.321 14H136.265V1.20001H141.321V14Z" fill="#283224"/>
<path d="M153.553 3.07201C154.854 4.32001 155.505 5.82934 155.505 7.60001C155.505 9.37067 154.854 10.88 153.553 12.128C152.262 13.376 150.699 14 148.865 14H142.545V1.20001H148.865C150.699 1.20001 152.262 1.82401 153.553 3.07201ZM150.417 7.60001C150.417 6.73601 150.219 6.10134 149.825 5.696C149.441 5.28001 148.998 5.07201 148.497 5.07201H147.601V10.144H148.497C148.998 10.144 149.441 9.94134 149.825 9.53601C150.219 9.12 150.417 8.47467 150.417 7.60001Z" fill="#283224"/>
<path d="M163.056 9.88801H156.56V6.59201H163.056V9.88801Z" fill="#283224"/>
<path d="M171.961 14H166.905V6.28801H164.025V3.392C165.07 3.392 165.972 3.17334 166.729 2.736C167.486 2.29867 167.956 1.78667 168.137 1.20001H171.961V14Z" fill="#283224"/>
<path d="M186.595 7.60001C186.595 9.44534 185.976 11.0293 184.739 12.352C183.512 13.664 181.923 14.32 179.971 14.32C178.211 14.32 176.781 13.8987 175.683 13.056C174.584 12.2133 174.003 11.1947 173.939 10H178.659C178.883 10.416 179.272 10.624 179.827 10.624C180.349 10.624 180.733 10.3733 180.979 9.87201C181.235 9.37067 181.363 8.69867 181.363 7.85601C180.797 8.72001 179.752 9.15201 178.227 9.15201C176.829 9.15201 175.715 8.80534 174.883 8.11201C174.061 7.40801 173.651 6.45867 173.651 5.26401C173.651 4.00534 174.253 2.96001 175.459 2.12801C176.675 1.296 178.179 0.880005 179.971 0.880005C181.891 0.880005 183.475 1.49867 184.723 2.736C185.971 3.96267 186.595 5.58401 186.595 7.60001ZM181.283 5.76C181.304 5.41867 181.171 5.12 180.883 4.86401C180.605 4.60801 180.285 4.48001 179.923 4.48001C179.539 4.48001 179.213 4.60267 178.947 4.84801C178.691 5.08267 178.563 5.38667 178.563 5.76C178.563 6.13334 178.691 6.44267 178.947 6.68801C179.213 6.92267 179.539 7.04001 179.923 7.04001C180.275 7.04001 180.584 6.91734 180.851 6.67201C181.117 6.41601 181.261 6.11201 181.283 5.76Z" fill="#283224"/>
<path d="M101.148 24.853V27.102C101.148 27.7086 100.931 28.1766 100.498 28.506C100.065 28.8353 99.5707 29 99.016 29H96.468V18.6H99.016C99.5707 18.6 100.065 18.7646 100.498 19.094C100.931 19.4233 101.148 19.8913 101.148 20.498V22.565C101.148 23.0503 100.879 23.4316 100.342 23.709C100.879 23.9863 101.148 24.3676 101.148 24.853ZM99.198 22.409V20.862C99.198 20.5846 99.081 20.446 98.847 20.446H98.548V22.812H98.847C99.081 22.812 99.198 22.6776 99.198 22.409ZM99.198 26.751V25.074C99.198 24.7966 99.081 24.658 98.847 24.658H98.548V27.167H98.847C99.081 27.167 99.198 27.0283 99.198 26.751Z" fill="#555526"/>
<path d="M106.358 29H102.263V18.6H106.358V20.316H104.343V22.682H105.669V24.528H104.343V27.154H106.358V29Z" fill="#555526"/>
<path d="M112.494 29H110.401V24.801H109.465V29H107.385V18.6H109.465V22.955H110.401V18.6H112.494V29Z" fill="#555526"/>
<path d="M115.859 29H113.779V18.6H115.859V29Z" fill="#555526"/>
<path d="M122.465 29H120.645L118.89 23.709V29H117.148V18.6H119.046L120.723 23.982V18.6H122.465V29Z" fill="#555526"/>
<path d="M128.658 20.498V27.102C128.658 27.7086 128.42 28.1766 127.943 28.506C127.475 28.8353 126.955 29 126.383 29H123.666V18.6H126.383C126.955 18.6 127.475 18.7646 127.943 19.094C128.42 19.4233 128.658 19.8913 128.658 20.498ZM126.565 26.751V20.862C126.565 20.5846 126.448 20.446 126.214 20.446H125.746V27.167H126.214C126.448 27.167 126.565 27.0283 126.565 26.751Z" fill="#555526"/>
<path d="M136.674 24.853V27.102C136.674 27.7086 136.457 28.1766 136.024 28.506C135.591 28.8353 135.097 29 134.542 29H131.994V18.6H134.542C135.097 18.6 135.591 18.7646 136.024 19.094C136.457 19.4233 136.674 19.8913 136.674 20.498V22.565C136.674 23.0503 136.405 23.4316 135.868 23.709C136.405 23.9863 136.674 24.3676 136.674 24.853ZM134.724 22.409V20.862C134.724 20.5846 134.607 20.446 134.373 20.446H134.074V22.812H134.373C134.607 22.812 134.724 22.6776 134.724 22.409ZM134.724 26.751V25.074C134.724 24.7966 134.607 24.658 134.373 24.658H134.074V27.167H134.373C134.607 27.167 134.724 27.0283 134.724 26.751Z" fill="#555526"/>
<path d="M142.651 29H140.493L140.363 27.375H139.427L139.232 29H137.386L138.764 18.6H141.247L142.651 29ZM140.246 25.529L139.986 22.11L139.596 25.529H140.246Z" fill="#555526"/>
<path d="M148.641 29H146.626C146.453 28.4973 146.366 27.96 146.366 27.388V25.204C146.366 24.9353 146.223 24.801 145.937 24.801H145.664V29H143.584V18.6H146.132C146.704 18.6 147.216 18.7646 147.666 19.094C148.117 19.4233 148.342 19.8913 148.342 20.498V22.825C148.342 23.293 148.052 23.6743 147.471 23.969C148.078 24.281 148.381 24.6623 148.381 25.113V27.258C148.381 27.6653 148.468 28.246 148.641 29ZM146.314 22.669V20.862C146.314 20.5846 146.197 20.446 145.963 20.446H145.664V23.085H145.963C146.197 23.085 146.314 22.9463 146.314 22.669Z" fill="#555526"/>
<path d="M154.446 26.595C154.446 27.2883 154.212 27.8863 153.744 28.389C153.285 28.883 152.67 29.13 151.898 29.13C151.127 29.13 150.486 28.9263 149.974 28.519C149.472 28.1116 149.22 27.635 149.22 27.089V25.698H151.17V26.673C151.17 26.881 151.227 27.0456 151.339 27.167C151.452 27.2883 151.608 27.349 151.807 27.349C152.189 27.349 152.379 27.1236 152.379 26.673C152.379 26.2656 152.262 25.88 152.028 25.516C151.794 25.1433 151.422 24.71 150.91 24.216C149.862 23.1673 149.337 22.097 149.337 21.005C149.337 20.2683 149.571 19.6616 150.039 19.185C150.507 18.7083 151.144 18.47 151.95 18.47C152.626 18.47 153.203 18.678 153.679 19.094C154.156 19.5013 154.394 19.9736 154.394 20.511V21.902H152.431V20.849C152.431 20.667 152.384 20.524 152.288 20.42C152.202 20.3073 152.089 20.251 151.95 20.251C151.803 20.251 151.673 20.3073 151.56 20.42C151.456 20.5326 151.404 20.6756 151.404 20.849C151.404 21.2216 151.474 21.5293 151.612 21.772C151.76 22.0146 152.111 22.461 152.665 23.111C153.307 23.865 153.731 24.4196 153.939 24.775C154.277 25.373 154.446 25.9796 154.446 26.595Z" fill="#555526"/>
<path d="M162.297 20.368V27.232C162.297 27.8386 162.132 28.285 161.803 28.571C161.482 28.857 161.101 29 160.659 29H158.566V18.6H160.659C161.101 18.6 161.482 18.743 161.803 19.029C162.132 19.315 162.297 19.7613 162.297 20.368ZM160.802 27.011V20.602C160.802 20.3246 160.707 20.186 160.516 20.186H160.165V27.427H160.516C160.707 27.427 160.802 27.2883 160.802 27.011Z" fill="#D7790F"/>
<path d="M166.95 29H165.312L165.221 27.245H164.493L164.35 29H162.907L163.96 18.6H165.871L166.95 29ZM165.13 25.659L164.922 22.11L164.623 25.659H165.13Z" fill="#D7790F"/>
<path d="M170.693 20.186H169.692V29H168.093V20.186H167.027V18.6H170.693V20.186Z" fill="#D7790F"/>
<path d="M174.719 29H173.081L172.99 27.245H172.262L172.119 29H170.676L171.729 18.6H173.64L174.719 29ZM172.899 25.659L172.691 22.11L172.392 25.659H172.899Z" fill="#D7790F"/>
<path d="M181.014 20.368V23.02C181.014 23.618 180.841 24.0643 180.494 24.359C180.147 24.645 179.749 24.788 179.298 24.788H178.934V29H177.335V18.6H179.298C179.749 18.6 180.147 18.7473 180.494 19.042C180.841 19.328 181.014 19.77 181.014 20.368ZM179.441 22.799V20.602C179.441 20.3246 179.35 20.186 179.168 20.186H178.934V23.215H179.168C179.35 23.215 179.441 23.0763 179.441 22.799Z" fill="#D7790F"/>
<path d="M185.735 29H184.162C184.032 28.4973 183.967 27.96 183.967 27.388V25.074C183.967 24.7966 183.855 24.658 183.629 24.658H183.421V29H181.822V18.6H183.785C184.236 18.6 184.635 18.7473 184.981 19.042C185.328 19.328 185.501 19.77 185.501 20.368V22.89C185.501 23.306 185.272 23.6656 184.812 23.969C185.289 24.281 185.527 24.6406 185.527 25.048V27.258C185.527 27.7433 185.597 28.324 185.735 29ZM183.928 22.799V20.602C183.928 20.3246 183.837 20.186 183.655 20.186H183.421V23.215H183.655C183.837 23.215 183.928 23.0763 183.928 22.799Z" fill="#D7790F"/>
<path d="M190.143 20.381V27.219C190.143 27.7476 189.957 28.1983 189.584 28.571C189.212 28.9436 188.761 29.13 188.232 29.13C187.704 29.13 187.253 28.9436 186.88 28.571C186.508 28.1983 186.321 27.7476 186.321 27.219V20.381C186.321 19.8523 186.508 19.4016 186.88 19.029C187.253 18.6563 187.704 18.47 188.232 18.47C188.761 18.47 189.212 18.6563 189.584 19.029C189.957 19.4016 190.143 19.8523 190.143 20.381ZM188.544 27.18V20.42C188.544 20.3333 188.514 20.2596 188.453 20.199C188.393 20.1383 188.319 20.108 188.232 20.108C188.146 20.108 188.072 20.1383 188.011 20.199C187.951 20.2596 187.92 20.3333 187.92 20.42V27.18C187.92 27.2666 187.951 27.3403 188.011 27.401C188.072 27.4616 188.146 27.492 188.232 27.492C188.319 27.492 188.393 27.4616 188.453 27.401C188.514 27.3403 188.544 27.2666 188.544 27.18Z" fill="#D7790F"/>
<path d="M194.6 18.6V27.219C194.6 27.7476 194.423 28.1983 194.067 28.571C193.712 28.9436 193.27 29.13 192.741 29.13C192.221 29.13 191.784 28.9436 191.428 28.571C191.073 28.1983 190.895 27.7476 190.895 27.219V24.762H192.429V27.245C192.429 27.3316 192.46 27.4053 192.52 27.466C192.581 27.5266 192.655 27.557 192.741 27.557C192.837 27.557 192.91 27.5266 192.962 27.466C193.023 27.4053 193.053 27.3316 193.053 27.245V18.6H194.6Z" fill="#D7790F"/>
<path d="M198.698 29H195.539V18.6H198.698V20.056H197.151V22.812H198.165V24.398H197.151V27.414H198.698V29Z" fill="#D7790F"/>
<path d="M203.184 25.087V27.219C203.184 27.7476 203.006 28.1983 202.651 28.571C202.296 28.9436 201.858 29.13 201.338 29.13C200.818 29.13 200.38 28.9436 200.025 28.571C199.67 28.1983 199.492 27.7476 199.492 27.219V20.381C199.492 19.8523 199.67 19.4016 200.025 19.029C200.38 18.6563 200.818 18.47 201.338 18.47C201.858 18.47 202.296 18.6563 202.651 19.029C203.006 19.4016 203.184 19.8523 203.184 20.381V22.513H201.65V20.42C201.65 20.3333 201.62 20.2596 201.559 20.199C201.498 20.1383 201.425 20.108 201.338 20.108C201.251 20.108 201.178 20.1383 201.117 20.199C201.056 20.2596 201.026 20.3333 201.026 20.42V27.18C201.026 27.2666 201.056 27.3403 201.117 27.401C201.178 27.4616 201.251 27.492 201.338 27.492C201.425 27.492 201.498 27.4616 201.559 27.401C201.62 27.3403 201.65 27.2666 201.65 27.18V25.087H203.184Z" fill="#D7790F"/>
<path d="M207.425 20.186H206.424V29H204.825V20.186H203.759V18.6H207.425V20.186Z" fill="#D7790F"/>
<line x1="86" y1="2" x2="86" y2="28" stroke="#DDDDCB" stroke-width="2" stroke-linecap="round" stroke-linejoin="round" stroke-dasharray="1 4"/>
<g clip-path="url(#clip0)">
<path d="M54.6849 10.1012H52.8106V19.2509H59.0639V17.7034H54.6849V10.1012Z" fill="black"/>
<path d="M62.1983 18.0456C61.5835 18.0456 61.1879 17.8228 61.1879 17.1975C61.1879 16.5722 61.6273 16.3645 62.5351 16.1711C62.9455 16.0964 63.3552 15.9627 63.7358 15.7844V16.7813H63.7507C63.7358 17.4361 63.1938 18.0607 62.1983 18.0456ZM65.3618 14.7724C65.3618 13.225 64.5269 12.3323 62.6229 12.3323C60.7188 12.3323 59.8839 13.3443 59.8259 14.5194H61.3783C61.437 13.8797 61.8177 13.5822 62.6377 13.5822C63.3552 13.5822 63.7217 13.8647 63.7217 14.3707C63.7217 14.8767 63.2236 14.9658 62.1545 15.1296C60.7047 15.3381 59.5479 15.7988 59.5479 17.2572C59.5479 18.566 60.4854 19.2804 61.8177 19.2804C62.9306 19.2804 63.399 18.8937 63.7217 18.3877C63.7365 18.6407 63.8094 18.8937 63.9269 19.1166H65.5818V19.0569C65.4354 18.9376 65.3625 18.64 65.3625 18.1347V14.7724H65.3618Z" fill="black"/>
<path d="M73.3139 12.4968L72.4939 15.5767C72.3474 16.1272 72.2009 16.8115 72.2009 16.8115C72.2009 16.8115 72.0396 16.097 71.8932 15.5616L71.0434 12.4968H69.5788L68.7587 15.5616C68.6271 16.1121 68.4807 16.8115 68.4807 16.8115H68.4516C68.4516 16.8115 68.3052 16.097 68.1587 15.5767L67.3825 12.4968H65.6837L67.5877 19.1323H69.1549L70.0337 15.8742L70.3415 14.7285C70.3415 14.7285 70.488 15.3531 70.6344 15.8742L71.4983 19.1323H73.0656L74.9844 12.4968H73.3146H73.3139Z" fill="black"/>
<path d="M7.67406 15.5624L8.20118 9.28414H10.2078L9.65094 15.607C9.53349 16.9755 10.0613 17.9573 11.3936 17.9573C12.7259 17.9573 13.4731 16.9604 13.6047 15.7407L14.1757 9.28414H16.1675L15.6403 15.6666C15.421 18.1212 13.8241 19.9662 11.2465 19.9662C9.40118 20.041 7.81981 18.5977 7.6875 16.7232H7.67264C7.65778 16.3365 7.65778 15.9498 7.67264 15.5631L7.67406 15.5624ZM22.3337 9.0908C23.2712 9.0757 24.1939 9.3438 24.97 9.86417L24.7507 12.3489C24.15 11.5008 23.1693 11.04 22.1441 11.1141C20.0059 11.1141 18.8342 12.6314 18.6729 14.5504C18.5116 16.4695 19.4639 17.9127 21.5285 17.9127C22.6267 17.9278 23.6667 17.4513 24.3991 16.6183L24.1797 19.177C23.33 19.683 22.3783 19.9655 21.3969 19.9806C17.9993 19.9806 16.4469 17.4067 16.696 14.5799H16.6521C16.916 11.5748 18.9078 9.09008 22.3344 9.09008L22.3337 9.0908ZM26.596 9.28414H28.5729L27.8406 17.8085H31.7802C31.7802 17.9127 31.6047 19.7721 31.6047 19.7721H25.6585L26.596 9.28414V9.28414ZM37.4038 8.80761H37.5651L41.2995 19.742H39.1762L38.6929 18.0903H34.8269L34.0507 19.742H31.9125L37.4045 8.80761H37.4038ZM0 26.0059H48.0071V3.00586H0V26.0059Z" fill="#2774AE"/>
<path d="M37.287 13.1955C37.2432 13.0467 37.2283 12.8979 37.2142 12.7491H37.1851C37.1561 12.8979 37.0974 13.0467 37.0387 13.1804L35.6476 16.3192H38.1962C38.1814 16.3192 37.4052 13.6713 37.2884 13.1948L37.287 13.1955Z" fill="#2774AE"/>
<path d="M7.68889 16.7217C7.82049 18.6112 9.38771 20.0538 11.2478 19.9647C13.8254 19.9647 15.4217 18.1196 15.6417 15.6651L16.1688 9.28259H14.1771L13.6061 15.7391C13.4887 16.9588 12.7422 17.9557 11.395 17.9557C10.0478 17.9557 9.52073 16.9739 9.65233 15.6054L10.2092 9.28259H8.20257L7.67544 15.5609C7.64643 15.9476 7.64643 16.3342 7.67544 16.7209H7.6903L7.68889 16.7217Z" fill="white"/>
<path d="M21.3821 19.9949C22.3634 19.9654 23.3151 19.6973 24.15 19.1913L24.3693 16.6326C23.637 17.4656 22.5969 17.927 21.4988 17.927C19.4342 17.927 18.467 16.4838 18.6431 14.5647C18.8045 12.6457 19.9903 11.1284 22.1144 11.1284C23.1396 11.0536 24.121 11.5151 24.721 12.3632L24.9552 9.87847C24.1641 9.3581 23.2563 9.09 22.3188 9.1051C18.8922 9.1051 16.9005 11.6042 16.6365 14.6093H16.6804C16.4313 17.4059 17.9837 19.9949 21.3813 19.9949H21.3821Z" fill="white"/>
<path d="M31.795 17.8077H27.8554L28.5877 9.28333H26.6108L25.6733 19.7713H31.6196C31.6196 19.7713 31.795 17.9119 31.795 17.8077V17.8077Z" fill="white"/>
<path d="M37.0379 13.1955C37.0967 13.0618 37.1554 12.913 37.1844 12.7642H37.2134C37.2283 12.913 37.2573 13.0618 37.2863 13.2106C37.3889 13.6864 38.1799 16.335 38.1799 16.335H35.6313L37.0372 13.1962L37.0379 13.1955ZM34.812 18.0902H38.678L39.1613 19.7418H41.2846L37.5502 8.8075H37.3889L31.8969 19.7418H34.0351L34.8113 18.0902H34.812Z" fill="white"/>
</g>
<defs>
<clipPath id="clip0">
<rect width="75" height="23" fill="white" transform="translate(0 3)"/>
</clipPath>
</defs>
</svg>
