<svg width="32" height="32" viewBox="0 0 32 32" fill="none" xmlns="http://www.w3.org/2000/svg">
<path d="M4.2219 17.0142C4.2219 16.6355 4.16786 16.2567 4.16786 15.8779C4.16786 14.471 4.16786 13.064 4.2219 11.6571C4.2219 11.603 4.16786 11.4948 4.16786 11.4407C4.16786 10.5749 4.2219 9.70907 4.16786 8.89738C4.11382 6.89522 4.11382 4.94718 4.32998 2.94502C4.32998 2.62034 4.38402 2.13333 4.97847 2.13333C5.62695 2.13333 6.00524 2.51212 5.9512 3.05324C5.89716 4.35194 5.73504 5.65064 5.84312 6.94934C6.00524 8.84327 5.89716 10.7372 5.9512 12.6311C6.00524 14.3086 5.9512 16.0402 6.00524 17.7177C6.05928 19.287 6.16736 20.9103 6.16736 22.4796C6.16736 23.8324 6.00524 25.2393 5.9512 26.5921C5.9512 26.9168 5.89716 27.2415 6.11332 27.5662C5.84312 27.945 6.32948 28.3779 5.9512 28.7566C5.9512 28.8649 5.89716 29.0272 5.89716 29.1354C6.00524 29.6766 5.78908 29.8389 5.08655 29.6766C4.92443 29.6224 4.70827 29.6766 4.60019 29.5683C4.11382 29.1895 4.32998 28.7025 4.32998 28.2696C4.27594 26.1592 4.27594 24.0489 4.27594 21.9385C4.27594 20.6398 4.27594 19.3411 4.2219 18.0965C4.2219 17.7177 4.16786 17.3389 4.2219 17.0142Z" fill="#C0C0C0"/>
<path d="M12.2534 29.7307C12.1993 29.7307 12.1993 29.7307 12.1453 29.7307C11.1185 29.7307 10.9564 29.5683 10.9023 28.6484C10.8483 28.1614 10.9023 27.6744 10.9023 27.1874C10.9023 26.3757 10.9023 25.564 11.0104 24.8064C11.0645 24.5359 10.9564 24.2112 10.9564 23.9406C10.9564 23.1831 11.0104 22.4255 10.9564 21.6138C10.9564 21.3432 10.9023 21.0186 10.9023 20.748C11.0104 20.0445 10.7943 19.3411 10.9023 18.6376C11.0104 17.9342 10.7943 17.2307 10.9564 16.5272C11.0645 16.0402 11.0104 15.4991 10.9564 14.958C10.9023 14.6874 10.9564 14.471 11.0104 14.2545C11.0645 13.6593 11.0645 13.064 11.1185 12.4147C11.1725 11.6571 11.1725 10.8454 11.2266 10.0879C11.2806 9.70907 11.2266 9.33028 11.2266 9.00561C11.2266 8.68093 11.3347 8.35626 11.2806 8.0857C11.2266 7.76102 11.2266 7.43635 11.2806 7.16579C11.3347 6.57055 11.2806 5.9212 11.2806 5.32596C11.3347 4.51428 11.1185 3.70259 11.2806 2.89091C11.3347 2.40389 11.6589 2.13333 12.1453 2.13333C12.4695 2.13333 12.5776 2.24156 12.6857 2.56623C12.8478 2.99913 12.7397 3.43203 12.7938 3.86493C12.8478 4.6225 12.9559 5.38008 12.9559 6.13765C12.9559 7.38224 12.9018 8.62682 12.9018 9.87141C12.9018 11.8195 12.7938 13.7675 12.8478 15.7697C12.9018 17.1225 12.9018 18.4212 12.9018 19.774C12.9559 21.1268 12.9559 22.4796 12.9559 23.7783C13.0099 25.4017 13.0099 27.025 13.064 28.5943C13.064 28.8649 13.118 29.0813 13.172 29.3519C13.172 29.5142 13.172 29.6224 12.9018 29.6766C12.6857 29.7307 12.4695 29.7307 12.2534 29.7307Z" fill="#C0C0C0"/>
<path d="M27.3549 29.6827C27.571 29.5744 27.571 29.4662 27.463 29.2498C27.4089 29.1957 27.4089 29.0874 27.4089 29.0333C27.3008 28.384 27.3549 27.7346 27.3549 27.0312C27.3549 26.2736 27.4089 25.5701 27.3549 24.8126C27.3549 23.8926 27.4089 22.9186 27.3549 21.9987C27.3549 21.6199 27.4089 21.2411 27.3008 20.8623C27.4089 20.7541 27.3549 20.6459 27.3549 20.4836C27.3549 20.1048 27.3549 19.7801 27.3549 19.4013C27.3549 19.0766 27.3008 18.6978 27.3549 18.3732C27.463 17.9944 27.2468 17.6697 27.3549 17.345C27.3008 16.5875 27.3549 15.8299 27.3008 15.0182C27.3008 14.2606 27.3549 13.4489 27.3008 12.6914C27.3008 12.2044 27.3008 11.7715 27.3008 11.2844C27.2468 10.6892 27.2468 10.094 27.2468 9.44462C27.2468 8.4706 27.2468 7.49658 27.2468 6.46844C27.2468 5.60264 27.1928 4.73684 27.1928 3.92516C27.1928 3.49226 27.1928 3.00525 27.2468 2.57235C27.2468 2.41001 27.1928 2.3559 27.0847 2.3559H27.0306C26.166 2.3559 25.7877 2.84291 25.8958 3.87105C25.9498 4.62862 25.9498 5.38619 25.9498 6.08965C25.9498 6.52255 25.9498 6.95545 25.9498 7.38835C25.9498 8.0377 26.0039 8.68705 25.9498 9.3364C25.8958 9.66107 25.8958 9.98575 25.9498 10.3104C26.0039 10.581 26.0039 10.8515 26.0039 11.1221C25.9498 12.1502 26.0579 13.1784 26.0039 14.2065C26.0039 14.91 26.0579 15.6134 25.9498 16.2628C25.9498 16.371 25.9498 16.4792 25.9498 16.5875C25.9498 17.0204 25.9498 17.4533 26.0039 17.8862C26.0579 18.9143 25.8958 19.9424 26.0039 20.9706C26.0579 21.3494 26.0039 21.7823 26.0039 22.161C26.0039 22.3234 25.8958 22.4316 25.8958 22.5939C25.9498 22.8645 25.8958 23.1351 25.8958 23.4597C25.8958 24.055 25.8418 24.5961 25.8418 25.1913C25.8418 25.7325 25.8958 26.2195 25.8418 26.7606C25.7877 27.7346 25.7877 28.7086 25.8418 29.6286C25.8418 29.7909 25.8958 29.845 26.0039 29.8991C26.4362 29.9532 26.9226 29.8991 27.3549 29.6827Z" fill="#C0C0C0"/>
<path d="M18.6641 22.8584C18.6641 22.209 18.6101 21.5056 18.6101 20.8562C18.6101 20.1528 18.5561 19.5034 18.5561 18.8C18.5561 17.6095 18.5561 16.419 18.5561 15.2285C18.5561 13.4969 18.6101 11.7653 18.5561 9.97963C18.5561 9.11383 18.5561 8.30215 18.5561 7.43635C18.5561 6.24588 18.6101 5.00129 18.6641 3.81082C18.6641 3.37792 18.6641 2.89091 18.6641 2.45801C18.6641 2.29567 18.7182 2.24156 18.8803 2.24156C19.1505 2.24156 19.4207 2.13333 19.6909 2.13333C19.7449 2.13333 19.799 2.13333 19.799 2.13333C20.3394 2.18744 20.3394 2.18744 20.3394 2.72857C20.3394 4.02727 20.1773 5.32596 20.1232 6.57055C20.1232 7.70691 20.1773 8.84327 20.2313 9.92552C20.2313 10.5208 20.2853 11.116 20.3394 11.7112C20.3934 12.6311 20.3934 13.6052 20.3934 14.5792C20.3934 15.9861 20.3394 17.3389 20.3394 18.7458C20.3394 19.6116 20.3394 20.5316 20.2853 21.3974C20.2853 22.6961 20.2313 24.0489 20.2313 25.3476C20.2313 25.5099 20.1773 25.6722 20.1773 25.8887C20.1773 26.4298 20.1232 26.9168 20.1232 27.4579C20.1232 27.9991 20.1232 28.5402 20.2313 29.0813C20.2313 29.406 19.7449 29.6766 19.3126 29.6766C19.2586 29.6766 19.2586 29.6766 19.2045 29.6766C19.0424 29.6766 18.8263 29.8389 18.7182 29.6766C18.6101 29.5142 18.5561 29.2978 18.5561 29.0813C18.502 28.432 18.6101 27.8367 18.5561 27.1874C18.5561 26.8627 18.6101 26.538 18.5561 26.2134C18.6101 25.8887 18.6101 25.5099 18.6101 25.1852C18.6641 24.3735 18.6641 23.6701 18.6641 22.8584C18.6641 22.9125 18.6641 22.8584 18.6641 22.8584Z" fill="#C0C0C0"/>
<path d="M2.34666 25.1222L8.46697 18.4048L10.2583 20.7932L18.3192 12.2845L21.7525 16.4643L29.6641 6.61206" stroke="#E27C09" stroke-width="1.9162"/>
</svg>
