<svg width="156" height="19" viewBox="0 0 156 19" fill="none" xmlns="http://www.w3.org/2000/svg">
<path d="M3.40061 18H6.46013L9.67468 0.345769H6.94593L4.99238 14.3306H4.87869L2.93548 0.345769H0.196388L3.40061 18ZM10.5438 18H13.2208V0.345769H10.5438V18ZM17.0357 18H19.7128V2.45435H22.5449V0.345769H14.1933V2.45435H17.0357V18ZM22.1943 18H24.9127L25.3779 14.8371H28.6027L29.0885 18H31.7966L28.5304 0.345769H25.4502L22.1943 18ZM25.6879 12.8216L26.9386 4.02546H27.0523L28.2927 12.8216H25.6879ZM32.6657 18H38.9915V15.8914H35.3428V0.345769H32.6657V18ZM43.5204 18H46.1974V12.6252H46.4558C48.5128 12.6252 51.6446 12.098 51.6446 6.43379V5.81362C51.6446 0.61451 48.2337 0.345769 46.1974 0.345769H43.5204V18ZM46.1974 10.6613V2.29931H46.3318C48.3577 2.29931 48.8952 3.23991 48.8952 5.33815V6.92993C48.8952 9.58633 48.275 10.6613 46.3318 10.6613H46.1974ZM52.8238 18H55.4492V11.3952H56.4518L58.7981 18H61.6302L58.7981 10.9404C60.2865 10.1962 61.0824 8.51137 61.0824 5.83429V5.38984C61.0824 0.593838 57.7231 0.345769 55.7282 0.345769H52.8238V18ZM55.4492 9.4623V2.29931H55.8523C57.8058 2.29931 58.395 3.10553 58.395 4.92471V6.32009C58.395 8.69742 57.7335 9.4623 55.8523 9.4623H55.4492ZM66.7165 18.155C68.2565 18.155 71.068 17.4935 71.068 12.2531V5.99967C71.068 0.593838 68.3082 0.190726 66.7165 0.190726C65.0627 0.190726 62.3236 0.676528 62.3236 5.99967V12.2531C62.3236 17.5555 65.0006 18.155 66.7165 18.155ZM66.7165 16.1395C65.6312 16.1395 65.1247 15.4883 65.1247 13.297V5.2658C65.1247 3.00217 65.6312 2.29931 66.7165 2.29931C67.7707 2.29931 68.2772 3.00217 68.2772 5.2658V13.297C68.2772 15.4883 67.7707 16.1395 66.7165 16.1395ZM74.8725 18.1654C76.7744 18.1654 78.5832 17.3695 78.5832 13.7208V0.345769H75.9062L75.8752 14.0929C75.8752 15.695 75.4824 16.1395 74.8415 16.1395C74.0767 16.1395 73.7666 15.571 73.7666 13.7518L73.7976 11.6019H71.658C71.4616 12.5321 71.3686 13.5141 71.3686 14.2583C71.3686 16.3876 72.2161 18.1654 74.8725 18.1654ZM80.6927 18H87.3388V15.8914H83.3697V9.84474H86.3569V7.73615H83.3697V2.45435H87.2355V0.345769H80.6927V18ZM92.2287 18.155C94.6577 18.1447 95.9911 16.8217 95.9911 13.9896V12.3564H93.5414V14.0826C93.5414 15.4986 92.9212 16.1291 92.2287 16.1291C91.1434 16.1291 90.7506 15.4573 90.7506 13.266V5.20378C90.7506 2.94016 91.2674 2.23729 92.2494 2.23729C93.0659 2.23729 93.5104 3.2089 93.5104 5.14177V6.04102H95.681C95.836 5.27614 95.9084 4.68697 95.9084 3.93243C95.9084 1.88586 95.0195 0.190726 92.2183 0.190726C90.6162 0.190726 87.9392 0.676528 87.9392 5.99967V12.2531C87.9392 17.5555 90.5542 18.155 92.2287 18.155ZM98.886 18H101.563V2.45435H104.395V0.345769H96.0436V2.45435H98.886V18ZM104.675 14.4237C104.675 16.3049 105.585 18.1654 108.779 18.1654C111.363 18.1654 112.985 16.5943 112.985 14.0929C112.985 12.5735 112.365 11.2918 111.228 9.81373L108.117 6.05135C107.6 5.36916 107.28 4.84202 107.28 3.83941C107.28 2.90915 107.776 2.29931 108.779 2.29931C109.988 2.29931 110.494 3.34327 110.494 5.20378V6.04102H112.562C112.706 5.27614 112.851 4.68697 112.851 3.93243C112.851 2.14427 111.931 0.190726 108.81 0.190726C106.236 0.190726 104.747 1.84452 104.747 4.19084C104.747 5.64824 105.316 6.90926 106.298 8.17027L109.089 11.4882C110.071 12.7389 110.329 13.4004 110.329 14.496C110.329 15.5607 109.771 16.1395 108.758 16.1395C107.456 16.1395 107.021 15.0955 107.021 13.1937V12.3358H104.944C104.768 13.0696 104.675 13.6691 104.675 14.4237ZM118.072 18H120.75V9.84474H123.943V7.73615H120.75V2.45435H124.822V0.345769H118.072V18ZM125.701 12.5735C125.701 17.7623 128.358 18.155 129.888 18.155C131.428 18.155 134.115 17.7623 134.115 12.5735V0.345769H131.448V13.2867C131.448 15.478 130.942 16.1395 129.888 16.1395C128.833 16.1395 128.399 15.478 128.399 13.2867V0.345769H125.701V12.5735ZM136.225 18H138.602V12.8112C138.602 9.2349 138.416 7.74649 138.323 6.49581H138.405L142.664 18H144.855V0.345769H142.457V6.78522C142.457 9.52432 142.643 11.0644 142.736 12.16H142.674L138.395 0.345769H136.225V18ZM147.037 18H149.817C152.36 18 155.616 17.876 155.616 11.7363V6.60951C155.616 0.48014 152.36 0.345769 149.817 0.345769H147.037V18ZM149.714 16.1291V2.29931H150.396C152.339 2.29931 152.815 3.15722 152.815 6.47514V11.9533C152.815 15.2712 152.339 16.1291 150.396 16.1291H149.714Z" fill="#757557"/>
</svg>
